# xmcd CD database file
#
# Track frame offsets:
#	150
#	13535
#	24833
#	38951
#	56224
#	68105
#	81249
#	90525
#	109747
#	122548
#	135174
#	151343
#	169238
#	186310
#	199622
#
# Disc length: 2867 seconds
#
# Revision: 0
# Processed by: cddbd v1.5.1PL0 Copyright (c) Steve Scherf et al.
# Submitted via: CDex 1.51
#
DISCID=bc0b310f
DTITLE=Heidi Hauge - Movin' on
DYEAR=2005
DGENRE=Country
TTITLE0=Nashville's gone Hollywood
TTITLE1=I've got a tiger by the tail
TTITLE2=Between the two of them
TTITLE3=Torn in between
TTITLE4=If you ever want my lovin
TTITLE5=Stranger
TTITLE6=Your good girl's gonna go bad
TTITLE7=Before she's gone
TTITLE8=How do I win
TTITLE9=Pick up the phone
TTITLE10=I'll Tennessee you in my dreams
TTITLE11=Comin' down in the rain
TTITLE12=Don't tell mama
TTITLE13=Whiskey if you where a woman
TTITLE14=Daddy's hand
EXTD=YEAR: 2005
EXTT0=
EXTT1=
EXTT2=
EXTT3=
EXTT4=
EXTT5=
EXTT6=
EXTT7=
EXTT8=
EXTT9=
EXTT10=
EXTT11=
EXTT12=
EXTT13=
EXTT14=
PLAYORDER=
